<svg xmlns="http://www.w3.org/2000/svg" height="24px" viewBox="0 0 24 24" width="24px" fill="#000000">
    <path d="M0 0h24v24H0z" fill="none" />
    <path
        d="M20 1zm-8 12c-1.1 0-2-.9-2-2s.9-2 2-2 2 .9 2 2-.9 2-2 2zm1-9.94v2.02A6.53 6.53 0 0 0 12 5c-3.35 0-6 2.57-6 6.2 0 2.34 1.95 5.44 6 9.14 4.05-3.7 6-6.79 6-9.14V11h2v.2c0 3.32-2.67 7.25-8 11.8-5.33-4.55-8-8.48-8-11.8C4 6.22 7.8 3 12 3c.34 0 .67.02 1 .06z" />
    <g transform="scale(0.45) translate(26,1)">
        <path d="M12,14c1.66,0,3-1.34,3-3V5c0-1.66-1.34-3-3-3S9,3.34,9,5v6C9,12.66,10.34,14,12,14z" />
        <path
            d="M17,11c0,2.76-2.24,5-5,5s-5-2.24-5-5H5c0,3.53,2.61,6.43,6,6.92V21h2v-3.08c3.39-0.49,6-3.39,6-6.92H17z" />
    </g>
</svg>