<svg xmlns="http://www.w3.org/2000/svg" height="24px" viewBox="0 0 24 24" width="24px" fill="#000000">
    <path d="M0 0h24v24H0z" fill="none" />
    <path
        d="M20 1zm-8 12c-1.1 0-2-.9-2-2s.9-2 2-2 2 .9 2 2-.9 2-2 2zm1-9.94v2.02A6.53 6.53 0 0 0 12 5c-3.35 0-6 2.57-6 6.2 0 2.34 1.95 5.44 6 9.14 4.05-3.7 6-6.79 6-9.14V11h2v.2c0 3.32-2.67 7.25-8 11.8-5.33-4.55-8-8.48-8-11.8C4 6.22 7.8 3 12 3c.34 0 .67.02 1 .06z" />
    <g transform="scale(0.45) translate(30,2)">
        <path
        d="M14.12 4l1.83 2H20v12H4V6h4.05l1.83-2h4.24M15 2H9L7.17 4H4c-1.1 0-2 .9-2 2v12c0 1.1.9 2 2 2h16c1.1 0 2-.9 2-2V6c0-1.1-.9-2-2-2h-3.17L15 2zm-3 7c1.65 0 3 1.35 3 3s-1.35 3-3 3-3-1.35-3-3 1.35-3 3-3m0-2c-2.76 0-5 2.24-5 5s2.24 5 5 5 5-2.24 5-5-2.24-5-5-5z" />
    </g>
</svg>